<?xml version="1.0" standalone="no"?>
<!DOCTYPE svg PUBLIC "-//W3C//DTD SVG 20010904//EN"
 "http://www.w3.org/TR/2001/REC-SVG-20010904/DTD/svg10.dtd">
<svg version="1.0" xmlns="http://www.w3.org/2000/svg"
 width="171.000000pt" height="136.000000pt" viewBox="0 0 171.000000 136.000000"
 preserveAspectRatio="xMidYMid meet">

<g transform="translate(0.000000,136.000000) scale(0.100000,-0.100000)"
fill="#000000" stroke="none">
<path d="M545 1226 c-30 -13 -106 -86 -91 -86 5 0 -2 -9 -15 -20 -23 -19 -22
-19 13 1 21 11 36 25 33 29 -3 5 -1 12 5 15 6 4 9 1 8 -6 -2 -7 7 -13 22 -13
55 -2 62 -89 19 -262 -42 -171 -150 -410 -218 -483 l-30 -32 51 -151 51 -151
28 33 c31 37 93 150 104 190 4 17 3 21 -3 11 -8 -11 -11 -10 -14 5 -2 15 -7
11 -20 -16 -25 -51 -22 -28 12 80 17 52 51 188 75 302 48 219 59 363 33 425
-6 15 -13 38 -14 50 -2 18 0 20 11 10 7 -6 10 -16 7 -22 -3 -5 5 -1 17 9 16
15 20 16 16 5 -3 -9 0 -21 8 -28 25 -20 3 66 -23 95 -26 27 -42 29 -85 10z
m21 -72 c18 -14 18 -14 -6 -3 -31 14 -36 19 -24 19 6 0 19 -7 30 -16z"/>
<path d="M780 1206 c0 -2 20 -16 44 -30 52 -31 86 -80 86 -127 0 -49 -53 -134
-129 -207 l-66 -63 80 36 c99 45 205 105 267 153 47 35 58 53 20 33 -11 -6
-36 -9 -56 -7 -29 2 -41 -3 -55 -20 -23 -29 -120 -113 -146 -125 l-20 -10 20
16 c120 95 165 154 165 219 0 26 -8 41 -35 65 -20 17 -42 31 -50 31 -7 0 -20
6 -27 13 -7 8 -20 14 -28 14 -9 0 -28 3 -43 7 -15 3 -27 4 -27 2z"/>
<path d="M830 736 c60 -22 156 -74 188 -101 18 -15 37 -23 43 -19 7 4 9 3 5
-4 -3 -6 7 -26 22 -44 42 -48 72 -112 78 -166 12 -104 -70 -185 -246 -244 -82
-27 -114 -32 -235 -37 l-140 -6 80 -9 c223 -24 591 28 591 84 0 12 -4 16 -11
10 -5 -4 -22 -6 -36 -3 l-26 5 41 38 c40 38 41 40 41 107 0 60 -4 75 -32 118
-18 28 -42 61 -54 75 -12 14 -32 36 -43 49 l-21 24 22 -14 c18 -11 25 -11 35
-1 11 11 10 12 -3 7 -10 -4 -20 -2 -23 3 -3 6 7 9 24 8 23 -2 27 1 18 11 -6 8
-17 12 -25 9 -8 -3 -12 -2 -9 3 9 14 -126 69 -230 96 -74 18 -103 19 -54 1z"/>
<path d="M1230 190 c0 -5 7 -7 15 -4 8 4 15 8 15 10 0 2 -7 4 -15 4 -8 0 -15
-4 -15 -10z"/>
</g>
</svg>
